<svg width="400" height="300" viewBox="0 0 400 300" xmlns="http://www.w3.org/2000/svg">
  <defs>
    <linearGradient id="bg" x1="0%" y1="0%" x2="100%" y2="100%">
      <stop offset="0%" style="stop-color:#667eea;stop-opacity:1" />
      <stop offset="100%" style="stop-color:#764ba2;stop-opacity:1" />
    </linearGradient>
    <linearGradient id="card" x1="0%" y1="0%" x2="100%" y2="100%">
      <stop offset="0%" style="stop-color:#ffffff;stop-opacity:1" />
      <stop offset="100%" style="stop-color:#f8f9fa;stop-opacity:1" />
    </linearGradient>
  </defs>
  
  <!-- Background -->
  <rect width="400" height="300" fill="url(#bg)" rx="20"/>
  
  <!-- Header -->
  <rect x="20" y="20" width="360" height="60" fill="url(#card)" rx="10"/>
  <circle cx="50" cy="50" r="15" fill="#667eea"/>
  <rect x="80" y="35" width="120" height="8" fill="#333" rx="4"/>
  <rect x="80" y="50" width="80" height="6" fill="#666" rx="3"/>
  
  <!-- Navigation -->
  <rect x="20" y="100" width="80" height="180" fill="url(#card)" rx="10"/>
  <rect x="35" y="120" width="50" height="6" fill="#667eea" rx="3"/>
  <rect x="35" y="140" width="50" height="6" fill="#ccc" rx="3"/>
  <rect x="35" y="160" width="50" height="6" fill="#ccc" rx="3"/>
  <rect x="35" y="180" width="50" height="6" fill="#ccc" rx="3"/>
  
  <!-- Main Content -->
  <rect x="120" y="100" width="120" height="80" fill="url(#card)" rx="10"/>
  <rect x="135" y="115" width="90" height="8" fill="#333" rx="4"/>
  <rect x="135" y="130" width="60" height="6" fill="#666" rx="3"/>
  <rect x="135" y="145" width="80" height="20" fill="#667eea" rx="5"/>
  
  <rect x="120" y="200" width="120" height="80" fill="url(#card)" rx="10"/>
  <rect x="135" y="215" width="90" height="8" fill="#333" rx="4"/>
  <rect x="135" y="230" width="60" height="6" fill="#666" rx="3"/>
  <circle cx="180" cy="250" r="15" fill="#764ba2"/>
  
  <!-- Right Sidebar -->
  <rect x="260" y="100" width="120" height="180" fill="url(#card)" rx="10"/>
  <rect x="275" y="120" width="90" height="8" fill="#333" rx="4"/>
  <rect x="275" y="140" width="90" height="6" fill="#666" rx="3"/>
  <rect x="275" y="160" width="90" height="40" fill="#667eea" rx="5"/>
  <rect x="275" y="210" width="90" height="6" fill="#666" rx="3"/>
  <rect x="275" y="225" width="90" height="40" fill="#764ba2" rx="5"/>
  
  <!-- Decorative Elements -->
  <circle cx="320" cy="50" r="8" fill="#ff6b6b"/>
  <circle cx="340" cy="50" r="8" fill="#4ecdc4"/>
  <circle cx="360" cy="50" r="8" fill="#45b7d1"/>
</svg>
