<svg width="400" height="300" viewBox="0 0 400 300" xmlns="http://www.w3.org/2000/svg">
  <defs>
    <linearGradient id="bg" x1="0%" y1="0%" x2="100%" y2="100%">
      <stop offset="0%" style="stop-color:#4facfe;stop-opacity:1" />
      <stop offset="100%" style="stop-color:#00f2fe;stop-opacity:1" />
    </linearGradient>
    <linearGradient id="card" x1="0%" y1="0%" x2="100%" y2="100%">
      <stop offset="0%" style="stop-color:#ffffff;stop-opacity:1" />
      <stop offset="100%" style="stop-color:#f8f9fa;stop-opacity:1" />
    </linearGradient>
  </defs>
  
  <!-- Background -->
  <rect width="400" height="300" fill="url(#bg)" rx="20"/>
  
  <!-- Social Media Post -->
  <rect x="50" y="30" width="120" height="160" fill="url(#card)" rx="15"/>
  <rect x="60" y="40" width="100" height="80" fill="#4facfe" rx="10"/>
  <circle cx="110" cy="80" r="20" fill="#fff"/>
  <text x="110" y="85" font-family="Arial, sans-serif" font-size="16" font-weight="bold" text-anchor="middle" fill="#4facfe">📱</text>
  <rect x="60" y="130" width="100" height="8" fill="#333" rx="4"/>
  <rect x="60" y="145" width="80" height="6" fill="#666" rx="3"/>
  <rect x="60" y="155" width="60" height="6" fill="#666" rx="3"/>
  <rect x="60" y="165" width="40" height="15" fill="#4facfe" rx="5"/>
  
  <!-- Banner Ad -->
  <rect x="200" y="30" width="150" height="80" fill="url(#card)" rx="15"/>
  <rect x="210" y="40" width="130" height="40" fill="#00f2fe" rx="8"/>
  <text x="275" y="65" font-family="Arial, sans-serif" font-size="18" font-weight="bold" text-anchor="middle" fill="#fff">SALE!</text>
  <rect x="210" y="90" width="130" height="8" fill="#333" rx="4"/>
  <rect x="210" y="105" width="100" height="6" fill="#666" rx="3"/>
  
  <!-- Email Template -->
  <rect x="200" y="130" width="150" height="60" fill="url(#card)" rx="15"/>
  <rect x="210" y="140" width="130" height="8" fill="#333" rx="4"/>
  <rect x="210" y="155" width="100" height="6" fill="#666" rx="3"/>
  <rect x="210" y="165" width="80" height="15" fill="#00f2fe" rx="5"/>
  
  <!-- Analytics Chart -->
  <rect x="50" y="210" width="300" height="70" fill="url(#card)" rx="15"/>
  <rect x="60" y="220" width="280" height="8" fill="#333" rx="4"/>
  
  <!-- Chart Bars -->
  <rect x="70" y="240" width="20" height="30" fill="#4facfe" rx="3"/>
  <rect x="100" y="235" width="20" height="35" fill="#00f2fe" rx="3"/>
  <rect x="130" y="230" width="20" height="40" fill="#4facfe" rx="3"/>
  <rect x="160" y="225" width="20" height="45" fill="#00f2fe" rx="3"/>
  <rect x="190" y="240" width="20" height="30" fill="#4facfe" rx="3"/>
  <rect x="220" y="235" width="20" height="35" fill="#00f2fe" rx="3"/>
  <rect x="250" y="230" width="20" height="40" fill="#4facfe" rx="3"/>
  <rect x="280" y="225" width="20" height="45" fill="#00f2fe" rx="3"/>
  <rect x="310" y="240" width="20" height="30" fill="#4facfe" rx="3"/>
  
  <!-- Decorative Elements -->
  <circle cx="80" cy="80" r="6" fill="#fff" opacity="0.8"/>
  <circle cx="320" cy="80" r="6" fill="#fff" opacity="0.8"/>
  <circle cx="80" cy="180" r="4" fill="#fff" opacity="0.6"/>
  <circle cx="320" cy="180" r="4" fill="#fff" opacity="0.6"/>
</svg>
