<svg width="400" height="300" viewBox="0 0 400 300" xmlns="http://www.w3.org/2000/svg">
  <defs>
    <linearGradient id="sky" x1="0%" y1="0%" x2="0%" y2="100%">
      <stop offset="0%" style="stop-color:#1a1a2e;stop-opacity:1" />
      <stop offset="50%" style="stop-color:#16213e;stop-opacity:1" />
      <stop offset="100%" style="stop-color:#0f3460;stop-opacity:1" />
    </linearGradient>
    <radialGradient id="spotlight1" cx="50%" cy="0%" r="50%">
      <stop offset="0%" style="stop-color:#ff6b6b;stop-opacity:0.8" />
      <stop offset="100%" style="stop-color:#ff6b6b;stop-opacity:0" />
    </radialGradient>
    <radialGradient id="spotlight2" cx="80%" cy="0%" r="50%">
      <stop offset="0%" style="stop-color:#4ecdc4;stop-opacity:0.8" />
      <stop offset="100%" style="stop-color:#4ecdc4;stop-opacity:0" />
    </radialGradient>
    <radialGradient id="spotlight3" cx="20%" cy="0%" r="50%">
      <stop offset="0%" style="stop-color:#45b7d1;stop-opacity:0.8" />
      <stop offset="100%" style="stop-color:#45b7d1;stop-opacity:0" />
    </radialGradient>
  </defs>
  
  <!-- Background Sky -->
  <rect width="400" height="300" fill="url(#sky)"/>
  
  <!-- Stage Platform -->
  <rect x="50" y="200" width="300" height="100" fill="#2c2c2c"/>
  <rect x="60" y="190" width="280" height="20" fill="#444"/>
  <rect x="70" y="180" width="260" height="20" fill="#555"/>
  
  <!-- Spotlights -->
  <ellipse cx="100" cy="50" rx="80" ry="40" fill="url(#spotlight1)"/>
  <ellipse cx="200" cy="40" rx="90" ry="45" fill="url(#spotlight2)"/>
  <ellipse cx="300" cy="50" rx="80" ry="40" fill="url(#spotlight3)"/>
  
  <!-- Light Beams -->
  <path d="M 100 50 L 80 200" stroke="#ff6b6b" stroke-width="2" opacity="0.6"/>
  <path d="M 200 40 L 200 200" stroke="#4ecdc4" stroke-width="2" opacity="0.6"/>
  <path d="M 300 50 L 320 200" stroke="#45b7d1" stroke-width="2" opacity="0.6"/>
  
  <!-- Crowd Silhouettes -->
  <rect x="80" y="220" width="8" height="20" fill="#333" rx="4"/>
  <rect x="95" y="225" width="8" height="18" fill="#333" rx="4"/>
  <rect x="110" y="220" width="8" height="20" fill="#333" rx="4"/>
  <rect x="125" y="225" width="8" height="18" fill="#333" rx="4"/>
  <rect x="140" y="220" width="8" height="20" fill="#333" rx="4"/>
  
  <rect x="200" y="220" width="8" height="20" fill="#333" rx="4"/>
  <rect x="215" y="225" width="8" height="18" fill="#333" rx="4"/>
  <rect x="230" y="220" width="8" height="20" fill="#333" rx="4"/>
  <rect x="245" y="225" width="8" height="18" fill="#333" rx="4"/>
  <rect x="260" y="220" width="8" height="20" fill="#333" rx="4"/>
  
  <rect x="320" y="220" width="8" height="20" fill="#333" rx="4"/>
  <rect x="335" y="225" width="8" height="18" fill="#333" rx="4"/>
  <rect x="350" y="220" width="8" height="20" fill="#333" rx="4"/>
  
  <!-- Floating Particles -->
  <circle cx="50" cy="80" r="2" fill="#fff" opacity="0.8">
    <animate attributeName="cy" values="80;60;80" dur="3s" repeatCount="indefinite"/>
  </circle>
  <circle cx="350" cy="100" r="1.5" fill="#fff" opacity="0.6">
    <animate attributeName="cy" values="100;80;100" dur="4s" repeatCount="indefinite"/>
  </circle>
  <circle cx="80" cy="120" r="1" fill="#fff" opacity="0.7">
    <animate attributeName="cy" values="120;100;120" dur="2.5s" repeatCount="indefinite"/>
  </circle>
  <circle cx="320" cy="140" r="1.5" fill="#fff" opacity="0.5">
    <animate attributeName="cy" values="140;120;140" dur="3.5s" repeatCount="indefinite"/>
  </circle>
  
  <!-- Stage Lights -->
  <circle cx="120" cy="160" r="15" fill="#ff6b6b" opacity="0.3"/>
  <circle cx="200" cy="150" r="20" fill="#4ecdc4" opacity="0.3"/>
  <circle cx="280" cy="160" r="15" fill="#45b7d1" opacity="0.3"/>
</svg>
